# xmcd
#
# Track frame offsets:
#	150
#	967
#	14720
#	24070
#	35865
#	51642
#	77242
#	98317
#	110260
#	129432
#	149380
#	170900
#	183952
#	208165
#	222955
#	237280
#
# Disc length: 3352 seconds
#
# Revision: 3
# Processed by: cddbd v1.5.1PL2 Copyright (c) Steve Scherf et al.
# Submitted via: EasyCDDAExtractor 5.0.6
#
DISCID=d90d1610
DTITLE=Les Cowboys Fringants - Motel Capri
DYEAR=2000
DGENRE=Country
TTITLE0=Su' Mon Big Wheel (c'tait l'fun)
TTITLE1=Le Plombier
TTITLE2=Québécois De Souche
TTITLE3=Awikatchikaën
TTITLE4=Maurice Au Bistro
TTITLE5=M'a Vivre Avec Toi
TTITLE6=Le Shack À Hector
TTITLE7=Marcel Galarneau
TTITLE8=Mon Pays suivi du Reel Des Aristocrates
TTITLE9=Rue Chapdelaine
TTITLE10=Banlieue
TTITLE11=Voyou
TTITLE12=Léopold
TTITLE13=Le Gars D'la Compagnie
TTITLE14=Le Pouceux
TTITLE15=Un P'tit Tour
EXTD=YEAR: 2000  ID3G:   2
EXTT0=
EXTT1=
EXTT2=
EXTT3=
EXTT4=
EXTT5=
EXTT6=
EXTT7=
EXTT8=
EXTT9=
EXTT10=
EXTT11=
EXTT12=
EXTT13=
EXTT14=
EXTT15=
PLAYORDER=
